# xmcd
#
# Track frame offsets:
#	182
#	4200
#	18942
#	38692
#	51415
#	63122
#	75627
#	93615
#	102782
#	119205
#	135452
#	146375
#
# Disc length: 2008 seconds
# Revision: 5
# Processed by: cddbd v1.5.2PL0 Copyright (c) Steve Scherf et al.
# Submitted via: dBpowerAMP V12.0
#
DISCID=9a07d60c
DTITLE=SammyKershaw,Kaplan,LA - Christmas Time's a Comin'
DYEAR=1993
DGENRE=Country
TTITLE0=We Three Kings (Pt. 1)
TTITLE1=Christmas Time's A-Coming
TTITLE2=White Christmas
TTITLE3=Please Come Home for Christmas
TTITLE4=Rudolph the Red-Nosed Reindeer
TTITLE5=Frosty the Snowman
TTITLE6=Daddy Stuff
TTITLE7=Winter Wonderland
TTITLE8=All I Want for Christmas Is You
TTITLE9=Christmas Won't Be Christmas (Without You Here)
TTITLE10=Up on the Housetop
TTITLE11=We Three Kings (Pt. 2)
EXTD=
EXTT0=
EXTT1=
EXTT2=
EXTT3=
EXTT4=
EXTT5=
EXTT6=
EXTT7=
EXTT8=
EXTT9=
EXTT10=
EXTT11=
PLAYORDER=
